<svg id="svg" version="1.1" xmlns="http://www.w3.org/2000/svg" xmlns:xlink="http://www.w3.org/1999/xlink" width="400" height="400" viewBox="0, 0, 400,400"><g id="svgg"><path id="path0" d="M65.315 58.300 C 41.735 75.185,22.434 89.090,22.422 89.200 C 22.376 89.649,97.149 112.079,97.663 111.770 C 99.013 110.958,184.000 44.302,184.000 44.055 C 184.000 43.813,109.686 27.596,108.594 27.599 C 108.370 27.599,88.895 41.415,65.315 58.300 M150.911 86.585 C 125.783 105.743,105.028 121.612,104.790 121.850 C 104.452 122.188,137.931 209.385,143.832 223.535 L 144.388 224.869 147.738 221.935 L 151.088 219.000 152.763 212.859 L 154.438 206.718 152.463 204.629 C 142.888 194.505,148.405 175.752,159.480 180.780 L 161.160 181.543 161.754 179.471 C 162.081 178.332,163.550 172.900,165.018 167.400 C 167.839 156.833,168.475 155.403,170.911 154.143 C 171.970 153.595,194.225 151.275,199.036 151.211 C 199.651 151.203,200.010 150.782,200.393 149.622 C 202.680 142.693,210.336 141.609,215.564 147.475 L 217.503 149.651 222.448 149.196 C 225.167 148.945,227.451 148.682,227.523 148.611 C 227.668 148.466,197.260 52.845,196.856 52.176 C 196.709 51.931,177.238 66.513,150.911 86.585 M111.496 58.537 C 117.331 60.051,118.824 63.913,115.037 67.700 C 106.618 76.119,85.779 75.900,87.372 67.409 C 88.467 61.571,102.830 56.289,111.496 58.537 M189.415 77.346 C 197.287 81.012,200.371 94.976,194.725 101.390 C 188.118 108.896,177.226 100.679,177.205 88.173 C 177.190 79.358,182.887 74.306,189.415 77.346 M18.800 102.877 C 18.800 102.948,27.056 123.054,37.146 147.555 L 55.492 192.104 92.223 207.841 C 112.425 216.497,129.030 223.503,129.123 223.410 C 129.331 223.203,93.751 125.987,93.314 125.565 C 93.072 125.332,62.908 116.093,19.500 102.958 C 19.115 102.841,18.800 102.805,18.800 102.877 M139.058 117.988 C 149.639 124.057,148.674 144.514,137.805 144.514 C 131.230 144.514,125.319 135.655,126.126 127.010 C 126.898 118.743,132.978 114.501,139.058 117.988 M79.143 127.806 C 87.354 131.628,94.596 147.819,90.210 152.551 C 85.792 157.318,74.196 145.606,72.366 134.529 C 71.313 128.152,74.052 125.435,79.143 127.806 M236.531 161.751 C 213.394 163.758,194.372 165.492,194.261 165.604 C 194.026 165.841,281.241 227.233,282.543 227.746 C 283.393 228.080,370.624 215.387,371.276 214.834 C 371.971 214.244,281.669 157.998,280.111 158.051 C 279.280 158.079,259.669 159.744,236.531 161.751 M60.203 167.602 C 68.006 172.971,73.813 187.423,69.786 191.450 C 65.488 195.748,55.046 185.981,52.215 175.016 C 50.189 167.167,54.183 163.460,60.203 167.602 M162.022 231.712 C 153.137 264.760,145.852 291.921,145.834 292.069 C 145.757 292.682,236.175 370.076,236.352 369.549 C 236.803 368.212,273.137 238.206,273.072 238.162 C 273.033 238.134,252.120 223.449,226.600 205.528 C 201.080 187.607,179.745 172.647,179.188 172.284 L 178.176 171.623 162.022 231.712 M283.917 181.435 C 295.514 183.825,303.959 190.871,299.612 194.529 C 292.941 200.142,268.400 192.453,268.400 184.750 C 268.400 181.260,275.600 179.722,283.917 181.435 M332.684 234.597 C 307.430 238.393,286.701 241.566,286.618 241.649 C 286.318 241.951,250.003 372.136,250.172 372.305 C 250.267 372.401,270.743 366.906,295.673 360.095 L 341.000 347.711 361.079 287.756 C 372.122 254.780,381.167 227.755,381.179 227.700 C 381.252 227.356,373.920 228.399,332.684 234.597 M243.028 237.305 C 251.204 241.570,254.992 258.858,250.060 269.398 C 245.670 278.779,236.383 278.018,231.407 267.871 C 223.639 252.029,231.519 231.302,243.028 237.305 M361.874 245.627 C 369.295 248.438,367.903 262.820,359.371 271.494 C 349.551 281.477,339.817 275.622,343.395 261.884 C 345.995 251.902,355.761 243.310,361.874 245.627 M308.513 254.148 C 315.550 257.147,314.030 271.433,305.782 279.803 C 296.490 289.234,286.903 284.727,289.358 272.082 C 291.538 260.854,301.770 251.275,308.513 254.148 M173.200 264.833 C 183.758 269.614,186.762 293.628,177.789 301.526 C 169.621 308.716,159.207 297.938,159.117 282.200 C 159.044 269.439,165.578 261.381,173.200 264.833 M338.513 312.148 C 347.280 315.884,341.951 335.965,330.700 341.587 C 320.548 346.660,315.306 335.822,321.710 323.000 C 325.768 314.875,333.378 309.961,338.513 312.148 M284.006 327.542 C 290.546 331.025,288.723 344.854,280.653 352.987 C 272.025 361.682,263.422 358.902,264.104 347.640 C 264.839 335.516,276.627 323.612,284.006 327.542 " stroke="none" fill="#040404" fill-rule="evenodd"></path><path id="path1" d="" stroke="none" fill="#080404" fill-rule="evenodd"></path><path id="path2" d="" stroke="none" fill="#080404" fill-rule="evenodd"></path><path id="path3" d="" stroke="none" fill="#080404" fill-rule="evenodd"></path><path id="path4" d="" stroke="none" fill="#080404" fill-rule="evenodd"></path></g></svg>