<svg id="svg" version="1.1" xmlns="http://www.w3.org/2000/svg" xmlns:xlink="http://www.w3.org/1999/xlink" width="400" height="538.5930309007232" viewBox="0, 0, 400,538.5930309007232"><g id="svgg"><path id="path0" d="M172.255 0.177 C 159.144 0.897,151.038 1.698,140.565 3.308 C 138.251 3.664,136.062 3.951,135.700 3.947 C 135.339 3.943,133.327 4.240,131.229 4.608 C 129.132 4.975,125.700 5.572,123.603 5.935 C 121.506 6.299,118.606 6.847,117.160 7.153 C 115.713 7.460,113.780 7.807,112.864 7.924 C 111.948 8.042,110.343 8.378,109.297 8.671 C 108.251 8.964,107.107 9.204,106.755 9.202 C 106.403 9.201,104.931 9.490,103.485 9.844 C 102.038 10.198,100.026 10.686,99.014 10.929 C 92.986 12.372,92.567 12.480,87.705 13.850 C 82.129 15.422,80.782 15.819,79.290 16.334 C 78.422 16.633,77.120 17.030,76.397 17.217 C 74.940 17.594,73.132 18.201,71.137 18.983 C 70.414 19.267,69.290 19.659,68.639 19.855 C 66.940 20.366,64.476 21.270,63.197 21.852 C 62.590 22.128,61.939 22.354,61.750 22.355 C 61.561 22.355,60.825 22.651,60.113 23.012 C 59.402 23.373,58.665 23.669,58.475 23.669 C 58.286 23.669,57.507 23.953,56.745 24.300 C 55.982 24.647,54.685 25.239,53.863 25.615 C 53.040 25.991,52.239 26.298,52.082 26.298 C 51.926 26.298,51.329 26.594,50.756 26.956 C 50.183 27.318,49.532 27.613,49.310 27.613 C 49.087 27.613,48.436 27.909,47.863 28.271 C 47.290 28.632,46.739 28.928,46.639 28.928 C 46.480 28.928,42.934 30.642,41.815 31.259 C 41.598 31.379,41.183 31.594,40.894 31.739 C 40.605 31.883,39.697 32.373,38.877 32.828 C 38.056 33.283,36.873 33.932,36.247 34.272 C 34.032 35.472,33.000 36.087,32.589 36.450 C 32.361 36.652,32.076 36.818,31.957 36.818 C 31.837 36.818,31.373 37.097,30.926 37.438 C 30.478 37.778,29.845 38.141,29.520 38.244 C 29.195 38.347,28.928 38.517,28.928 38.621 C 28.928 38.726,28.337 39.157,27.613 39.579 C 26.890 40.002,26.298 40.441,26.298 40.555 C 26.298 40.669,26.129 40.763,25.923 40.763 C 25.716 40.763,25.359 40.951,25.129 41.181 C 24.899 41.411,24.092 42.021,23.335 42.537 C 21.881 43.528,20.471 44.643,19.583 45.503 C 19.289 45.789,18.980 46.022,18.896 46.022 C 18.226 46.022,7.890 56.367,7.890 57.037 C 7.890 57.146,7.594 57.493,7.232 57.808 C 6.870 58.122,6.575 58.557,6.575 58.775 C 6.575 58.993,6.473 59.172,6.348 59.172 C 6.123 59.172,3.945 62.381,3.945 62.713 C 3.945 62.810,3.649 63.276,3.287 63.750 C 2.926 64.225,2.630 64.752,2.630 64.922 C 2.630 65.092,2.334 65.699,1.972 66.272 C 1.611 66.845,1.315 67.437,1.315 67.587 C 1.315 67.738,1.019 68.329,0.657 68.902 L 0.000 69.944 0.000 268.639 L 0.000 467.335 0.657 468.376 C 1.019 468.949,1.315 469.541,1.315 469.691 C 1.315 469.841,1.611 470.433,1.972 471.006 C 2.334 471.579,2.630 472.170,2.630 472.321 C 2.630 472.471,2.926 473.063,3.287 473.636 C 3.649 474.209,3.945 474.744,3.945 474.827 C 3.945 474.981,5.623 477.660,6.056 478.196 C 6.191 478.364,7.031 479.448,7.923 480.605 C 10.458 483.894,14.691 488.186,18.409 491.237 C 19.494 492.128,20.635 493.088,20.944 493.371 C 21.254 493.654,21.633 493.886,21.786 493.886 C 21.939 493.886,22.159 494.041,22.275 494.231 C 22.391 494.421,23.314 495.156,24.326 495.865 C 25.339 496.574,26.262 497.306,26.377 497.492 C 26.493 497.678,26.687 497.830,26.808 497.830 C 26.929 497.830,27.763 498.333,28.662 498.948 C 30.375 500.119,31.597 500.894,33.136 501.785 C 33.642 502.078,34.648 502.685,35.371 503.135 C 37.332 504.353,38.264 504.874,41.157 506.369 C 42.604 507.116,44.024 507.855,44.313 508.009 C 45.165 508.465,50.229 510.877,51.940 511.643 C 52.807 512.031,54.121 512.633,54.859 512.979 C 55.596 513.326,56.369 513.609,56.575 513.609 C 56.782 513.609,57.184 513.770,57.469 513.966 C 57.981 514.317,59.755 515.028,62.590 516.017 C 63.386 516.294,64.274 516.638,64.563 516.780 C 65.292 517.140,68.526 518.316,69.954 518.741 C 70.605 518.935,71.907 519.360,72.847 519.686 C 77.570 521.322,80.807 522.355,84.681 523.462 C 86.055 523.854,88.126 524.453,89.283 524.793 C 90.440 525.133,92.600 525.714,94.083 526.085 C 95.565 526.455,97.932 527.047,99.343 527.400 C 103.162 528.356,107.048 529.258,110.585 530.009 C 112.321 530.377,115.161 530.982,116.897 531.352 C 118.632 531.723,120.310 532.024,120.624 532.022 C 120.938 532.020,122.231 532.265,123.498 532.565 C 124.765 532.866,126.579 533.205,127.529 533.317 C 128.479 533.430,130.677 533.770,132.413 534.072 C 138.604 535.149,152.423 536.971,156.870 537.296 C 158.462 537.412,162.189 537.762,165.155 538.074 C 171.950 538.788,214.632 538.714,229.586 537.963 C 234.142 537.734,240.651 537.430,244.050 537.288 C 247.449 537.146,251.591 536.841,253.254 536.611 C 254.918 536.380,257.285 536.096,258.514 535.979 C 261.527 535.692,267.851 534.769,272.204 533.980 C 274.165 533.624,276.114 533.333,276.535 533.333 C 277.300 533.333,282.105 532.462,287.048 531.427 C 288.494 531.124,290.092 530.833,290.598 530.780 C 291.105 530.727,292.761 530.399,294.280 530.051 C 295.799 529.702,298.462 529.106,300.197 528.726 C 305.136 527.643,312.985 525.673,315.976 524.765 C 317.133 524.414,318.258 524.127,318.476 524.128 C 318.693 524.128,319.687 523.833,320.684 523.471 C 321.681 523.110,322.684 522.814,322.913 522.814 C 323.142 522.814,324.100 522.537,325.044 522.199 C 327.800 521.211,331.010 520.184,331.344 520.184 C 331.514 520.184,332.198 519.936,332.864 519.632 C 333.530 519.329,334.618 518.925,335.282 518.735 C 335.946 518.545,337.495 518.010,338.725 517.546 C 339.954 517.082,341.492 516.518,342.143 516.292 C 342.794 516.066,343.715 515.666,344.189 515.403 C 344.664 515.140,345.223 514.924,345.433 514.924 C 345.642 514.924,346.437 514.640,347.200 514.293 C 347.963 513.946,349.259 513.354,350.082 512.978 C 350.905 512.602,351.706 512.295,351.862 512.295 C 352.019 512.295,352.616 511.999,353.189 511.637 C 353.762 511.275,354.364 510.980,354.529 510.980 C 354.794 510.980,355.716 510.545,358.317 509.193 C 358.751 508.968,359.283 508.702,359.500 508.604 C 359.717 508.505,360.309 508.210,360.815 507.946 C 361.321 507.683,361.913 507.384,362.130 507.281 C 363.910 506.435,364.497 506.098,364.497 505.923 C 364.497 505.811,364.681 505.720,364.905 505.720 C 365.130 505.720,365.749 505.424,366.281 505.062 C 366.814 504.701,367.348 504.405,367.468 504.405 C 367.589 504.405,368.065 504.123,368.525 503.778 C 368.986 503.433,369.613 503.075,369.919 502.982 C 370.226 502.890,370.688 502.580,370.946 502.294 C 371.205 502.009,371.514 501.775,371.633 501.775 C 371.902 501.775,374.758 499.963,375.232 499.491 C 375.424 499.301,375.689 499.145,375.821 499.145 C 375.954 499.145,376.271 498.976,376.526 498.768 C 377.869 497.674,379.522 496.515,379.739 496.515 C 379.876 496.515,380.082 496.368,380.197 496.187 C 380.313 496.006,380.949 495.444,381.611 494.938 C 383.753 493.299,385.061 492.199,386.224 491.059 C 386.850 490.444,387.429 489.941,387.510 489.941 C 387.591 489.941,388.650 488.905,389.863 487.640 C 391.077 486.374,392.375 485.038,392.748 484.671 C 393.120 484.304,393.425 483.860,393.425 483.685 C 393.425 483.510,393.543 483.366,393.686 483.366 C 393.934 483.366,396.631 479.962,397.281 478.830 C 397.448 478.538,397.695 478.226,397.829 478.137 C 397.963 478.048,398.506 477.292,399.036 476.458 L 400.000 474.940 400.000 270.572 L 400.000 66.203 399.408 65.255 C 399.083 64.734,398.698 64.105,398.554 63.857 C 397.800 62.568,395.414 59.275,395.101 59.093 C 394.903 58.977,394.740 58.775,394.740 58.645 C 394.740 58.144,385.312 48.504,382.909 46.548 C 382.465 46.187,381.847 45.625,381.536 45.299 C 381.225 44.974,380.824 44.707,380.645 44.707 C 380.466 44.707,380.281 44.602,380.232 44.473 C 380.115 44.158,377.458 42.078,377.174 42.078 C 377.050 42.078,376.671 41.782,376.331 41.420 C 375.992 41.059,375.632 40.763,375.533 40.763 C 375.433 40.763,374.300 40.066,373.014 39.216 C 371.729 38.365,370.262 37.447,369.756 37.177 C 369.249 36.907,368.461 36.420,368.006 36.095 C 367.550 35.769,367.063 35.503,366.925 35.503 C 366.786 35.503,366.390 35.284,366.045 35.017 C 365.522 34.612,361.669 32.472,360.289 31.820 C 360.072 31.717,359.481 31.418,358.974 31.155 C 357.586 30.433,357.475 30.379,354.504 28.981 C 352.985 28.266,350.855 27.302,349.770 26.839 C 348.685 26.376,347.343 25.768,346.786 25.490 C 346.230 25.211,345.629 24.984,345.450 24.984 C 345.272 24.984,344.543 24.688,343.832 24.327 C 343.120 23.966,342.392 23.670,342.215 23.670 C 342.037 23.669,341.268 23.387,340.505 23.043 C 339.743 22.699,338.705 22.272,338.199 22.093 C 337.692 21.914,336.391 21.436,335.306 21.031 C 333.209 20.247,332.495 19.995,329.783 19.080 C 328.843 18.762,327.304 18.233,326.364 17.902 C 325.424 17.572,324.241 17.206,323.734 17.090 C 322.863 16.889,322.163 16.670,317.412 15.114 C 316.322 14.757,315.257 14.466,315.045 14.469 C 314.834 14.471,313.715 14.185,312.558 13.832 C 311.400 13.479,309.980 13.073,309.402 12.929 C 307.509 12.458,304.967 11.789,302.959 11.232 C 301.874 10.932,300.454 10.605,299.803 10.506 C 299.152 10.406,297.673 10.084,296.515 9.788 C 293.074 8.909,288.399 7.880,287.870 7.885 C 287.598 7.887,286.060 7.600,284.451 7.246 C 279.789 6.220,268.838 4.361,261.275 3.312 C 247.981 1.468,242.490 0.977,227.087 0.256 C 222.444 0.038,175.995 -0.029,172.255 0.177 M229.586 30.082 C 245.196 30.989,267.619 33.847,279.454 36.440 C 281.063 36.792,282.602 37.078,282.873 37.075 C 283.144 37.072,284.668 37.383,286.259 37.767 C 291.341 38.992,294.373 39.746,295.858 40.153 C 296.654 40.371,298.014 40.723,298.882 40.935 C 299.750 41.146,301.111 41.532,301.907 41.793 C 302.702 42.053,304.418 42.597,305.720 43.001 C 309.738 44.250,314.188 45.875,316.574 46.966 C 317.336 47.315,318.082 47.600,318.230 47.600 C 318.566 47.600,326.287 51.415,328.074 52.463 C 330.979 54.169,334.982 57.058,336.711 58.698 C 337.122 59.088,337.544 59.443,337.649 59.487 C 338.080 59.667,341.205 63.623,342.042 65.048 C 345.935 71.676,345.378 77.057,340.131 83.480 C 338.860 85.036,335.193 88.342,333.401 89.546 C 329.255 92.334,329.092 92.427,323.866 95.023 C 318.937 97.472,317.281 98.188,311.374 100.426 C 308.500 101.515,298.355 104.661,294.017 105.807 C 282.772 108.780,263.910 112.308,255.140 113.078 C 253.886 113.188,250.789 113.525,248.258 113.827 C 223.724 116.754,186.280 117.231,164.760 114.891 C 163.458 114.750,160.914 114.534,159.106 114.412 C 148.078 113.668,127.742 110.437,115.056 107.413 C 114.043 107.171,112.327 106.771,111.243 106.523 C 110.158 106.275,108.560 105.866,107.692 105.613 C 106.824 105.360,105.049 104.857,103.748 104.495 C 102.446 104.133,100.671 103.595,99.803 103.301 C 98.935 103.006,97.811 102.672,97.304 102.558 C 96.418 102.358,92.245 100.871,87.179 98.948 C 84.537 97.945,79.781 95.710,76.266 93.818 C 75.325 93.312,74.142 92.677,73.636 92.406 C 73.130 92.135,72.656 91.844,72.584 91.759 C 72.512 91.674,71.801 91.187,71.006 90.677 C 70.210 90.166,69.086 89.379,68.508 88.927 C 67.929 88.476,67.337 88.015,67.193 87.904 C 65.742 86.786,63.550 84.681,62.590 83.482 C 61.940 82.670,61.275 81.862,61.113 81.687 C 60.951 81.512,60.736 81.109,60.635 80.790 C 60.534 80.471,60.353 80.210,60.233 80.210 C 60.113 80.210,59.588 79.110,59.067 77.765 C 57.881 74.703,57.730 71.272,58.669 68.698 C 58.971 67.870,59.286 66.956,59.369 66.667 C 59.452 66.377,59.603 66.082,59.704 66.009 C 59.805 65.937,60.098 65.464,60.356 64.957 C 61.020 63.656,61.644 62.881,64.037 60.391 C 68.087 56.175,71.112 54.089,78.369 50.506 C 83.468 47.988,84.203 47.669,89.546 45.648 C 93.563 44.129,98.554 42.541,105.588 40.544 C 110.313 39.202,123.437 36.204,127.153 35.617 C 128.310 35.434,130.204 35.100,131.361 34.875 C 141.753 32.851,157.853 30.952,168.442 30.501 C 171.335 30.378,176.423 30.149,179.750 29.991 C 183.077 29.834,186.686 29.665,187.771 29.617 C 193.609 29.357,222.669 29.681,229.586 30.082 M213.018 233.000 C 218.669 233.668,223.485 234.893,227.114 236.586 C 227.851 236.931,228.537 237.212,228.638 237.212 C 229.083 237.212,232.979 239.534,235.802 241.482 C 239.538 244.060,244.897 249.464,247.475 253.254 C 247.819 253.761,248.174 254.234,248.264 254.306 C 248.354 254.379,248.511 254.615,248.614 254.832 C 248.717 255.049,249.203 255.878,249.695 256.673 C 250.651 258.219,252.464 261.783,252.467 262.123 C 252.468 262.235,252.633 262.643,252.834 263.028 C 258.161 273.238,258.499 296.910,253.495 309.402 C 249.991 318.151,244.869 325.009,236.791 331.770 C 234.167 333.967,234.071 334.040,232.667 334.916 C 228.364 337.599,227.680 338.640,229.332 339.991 C 229.978 340.519,230.820 341.279,231.203 341.679 C 231.587 342.079,232.017 342.406,232.159 342.406 C 232.302 342.406,232.612 342.702,232.849 343.064 C 233.086 343.425,233.454 343.721,233.668 343.721 C 233.882 343.721,234.057 343.824,234.057 343.951 C 234.057 344.077,235.240 345.157,236.686 346.351 C 238.133 347.545,239.316 348.625,239.316 348.752 C 239.316 348.878,239.491 348.981,239.705 348.981 C 239.918 348.981,240.287 349.277,240.524 349.638 C 240.761 350.000,241.105 350.296,241.289 350.296 C 241.472 350.296,241.816 350.592,242.053 350.953 C 242.290 351.315,242.659 351.611,242.873 351.611 C 243.086 351.611,243.261 351.714,243.261 351.840 C 243.261 351.965,244.736 353.288,246.538 354.779 C 248.340 356.270,249.875 357.646,249.949 357.838 C 250.022 358.029,250.216 358.185,250.379 358.185 C 250.543 358.185,250.992 358.511,251.377 358.909 C 251.762 359.306,252.901 360.342,253.909 361.210 C 256.177 363.163,259.915 366.494,261.144 367.656 L 262.064 368.527 261.297 368.737 C 258.880 369.396,223.981 369.874,223.756 369.251 C 223.708 369.117,221.420 366.661,218.672 363.794 C 215.924 360.926,212.788 357.636,211.703 356.483 C 210.618 355.329,209.316 353.946,208.810 353.409 C 208.304 352.872,207.002 351.466,205.917 350.285 C 200.264 344.130,198.239 342.889,192.856 342.275 C 187.839 341.703,176.931 337.576,173.964 335.128 C 173.820 335.009,172.991 334.450,172.124 333.886 C 169.783 332.364,167.717 330.565,164.574 327.309 C 163.026 325.704,161.517 324.143,161.221 323.838 C 160.926 323.534,160.684 323.164,160.684 323.016 C 160.684 322.868,160.490 322.586,160.254 322.390 C 159.243 321.551,154.829 314.079,154.088 311.952 C 153.933 311.508,153.578 310.697,153.300 310.151 C 153.022 309.606,152.794 309.016,152.794 308.842 C 152.794 308.668,152.557 307.971,152.266 307.293 C 151.976 306.616,151.556 305.215,151.334 304.181 C 148.424 290.648,149.892 273.267,154.834 262.722 C 155.139 262.071,155.456 261.361,155.539 261.144 C 155.622 260.927,156.041 260.158,156.472 259.435 C 156.902 258.711,157.492 257.683,157.783 257.149 C 161.044 251.164,169.330 242.944,175.279 239.791 C 182.930 235.737,188.873 233.756,195.661 232.997 C 197.179 232.827,198.540 232.650,198.685 232.604 C 199.676 232.288,209.221 232.551,213.018 233.000 M117.817 233.268 C 124.201 233.511,128.263 234.059,133.399 235.373 L 135.700 235.962 135.700 249.061 L 135.700 262.159 134.970 261.950 C 134.568 261.834,133.744 261.488,133.139 261.179 C 132.534 260.870,131.887 260.617,131.700 260.616 C 131.514 260.616,131.043 260.449,130.655 260.246 C 126.646 258.155,114.228 255.507,108.481 255.518 C 105.717 255.523,101.777 256.421,101.254 257.165 C 101.179 257.271,100.682 257.623,100.150 257.946 C 96.019 260.456,95.424 265.167,98.841 268.314 C 99.036 268.493,99.450 268.878,99.762 269.171 C 101.183 270.503,106.595 273.488,112.426 276.154 C 117.211 278.341,124.295 282.064,125.202 282.867 C 125.430 283.069,125.696 283.235,125.793 283.235 C 126.072 283.235,128.709 285.155,128.941 285.528 C 129.057 285.713,129.280 285.865,129.437 285.865 C 129.594 285.865,129.991 286.131,130.319 286.456 C 130.647 286.782,131.667 287.776,132.585 288.667 C 133.503 289.557,134.550 290.651,134.911 291.099 C 135.273 291.546,135.787 292.178,136.055 292.504 C 136.322 292.830,136.767 293.511,137.044 294.017 C 137.320 294.523,137.648 295.115,137.771 295.332 C 138.359 296.364,139.383 298.712,139.388 299.040 C 139.392 299.243,139.637 300.118,139.933 300.986 C 141.852 306.618,140.910 316.521,137.819 323.208 C 136.071 326.992,131.240 332.377,127.416 334.804 C 126.693 335.263,125.805 335.833,125.444 336.071 C 123.167 337.570,116.102 340.425,113.346 340.960 C 112.840 341.059,111.931 341.302,111.325 341.501 C 102.015 344.560,67.530 341.694,65.006 337.653 C 64.189 336.345,63.937 320.480,64.598 312.003 L 64.764 309.870 69.660 312.292 C 78.742 316.785,82.716 318.210,88.662 319.105 C 93.735 319.869,99.644 319.336,101.567 317.940 C 101.959 317.655,102.381 317.423,102.504 317.423 C 103.598 317.423,105.457 313.871,105.457 311.781 C 105.457 307.094,101.075 303.537,88.757 298.225 C 68.507 289.492,61.063 278.715,63.237 261.275 C 64.484 251.271,70.082 243.169,79.158 238.233 C 79.665 237.958,80.256 237.629,80.473 237.502 C 80.690 237.375,81.519 236.982,82.314 236.628 C 83.110 236.274,84.313 235.735,84.987 235.429 C 89.943 233.187,99.373 232.566,117.817 233.268 M305.851 275.214 L 305.851 317.160 324.392 317.160 L 342.932 317.160 342.932 328.994 L 342.932 340.828 308.218 340.828 L 273.504 340.828 273.504 287.048 L 273.504 233.268 289.678 233.268 L 305.851 233.268 305.851 275.214 M201.052 259.720 C 200.763 259.789,199.638 260.036,198.554 260.269 C 197.469 260.501,196.063 260.971,195.430 261.312 C 194.797 261.654,194.177 261.933,194.053 261.933 C 193.726 261.933,190.918 264.116,190.110 264.998 C 188.090 267.204,186.012 270.893,184.800 274.425 L 183.987 276.792 183.989 287.574 L 183.990 298.356 184.944 301.118 C 185.468 302.636,186.221 304.471,186.616 305.194 C 187.011 305.917,187.524 306.865,187.755 307.299 C 191.969 315.230,203.567 318.266,212.243 313.711 C 213.893 312.844,218.540 308.585,218.540 307.940 C 218.540 307.784,218.812 307.280,219.145 306.820 C 220.167 305.403,222.186 300.488,222.504 298.641 C 222.605 298.051,222.909 296.621,223.178 295.464 C 224.370 290.351,223.594 279.222,221.698 274.235 C 221.408 273.472,221.170 272.696,221.170 272.511 C 221.170 271.902,218.451 266.636,217.836 266.053 C 217.505 265.740,217.233 265.382,217.230 265.258 C 217.209 264.211,212.616 261.120,209.878 260.309 C 208.199 259.812,202.308 259.419,201.052 259.720 " stroke="none" fill="#04bcf4" fill-rule="evenodd"></path><path id="path1" d="" stroke="none" fill="#08bcf4" fill-rule="evenodd"></path><path id="path2" d="" stroke="none" fill="#08bcf4" fill-rule="evenodd"></path><path id="path3" d="" stroke="none" fill="#08bcf4" fill-rule="evenodd"></path><path id="path4" d="" stroke="none" fill="#08bcf4" fill-rule="evenodd"></path></g></svg>